<?xml version="1.0" standalone="no"?>
<!DOCTYPE svg PUBLIC "-//W3C//DTD SVG 20010904//EN"
 "http://www.w3.org/TR/2001/REC-SVG-20010904/DTD/svg10.dtd">
<svg version="1.0" xmlns="http://www.w3.org/2000/svg"
 width="512.000000pt" height="512.000000pt" viewBox="0 0 512.000000 512.000000"
 preserveAspectRatio="xMidYMid meet">
<metadata>
Created by potrace 1.14, written by Peter Selinger 2001-2017
</metadata>
<g transform="translate(0.000000,512.000000) scale(0.100000,-0.100000)"
fill="#000000" stroke="none">
<path d="M2712 4894 c-66 -17 -106 -38 -159 -81 -44 -36 -98 -114 -109 -158
l-6 -25 -656 0 -655 0 -52 49 c-118 112 -272 149 -422 103 -123 -39 -216 -121
-271 -242 -20 -44 -26 -74 -28 -151 -4 -104 10 -157 60 -243 26 -44 119 -136
138 -136 9 0 6 -102 -7 -220 -2 -19 -7 -69 -10 -110 -3 -41 -8 -95 -10 -120
-2 -25 -6 -79 -10 -120 -7 -82 -13 -150 -20 -220 -2 -25 -7 -79 -10 -120 -3
-41 -7 -95 -10 -120 -2 -25 -7 -79 -10 -120 -4 -41 -8 -91 -10 -110 -2 -19 -7
-71 -10 -115 -4 -44 -8 -96 -10 -115 -2 -19 -6 -71 -10 -115 -8 -104 -13 -159
-20 -220 -2 -27 -7 -86 -10 -130 -3 -44 -8 -96 -10 -115 -2 -19 -7 -73 -10
-120 -3 -47 -8 -101 -10 -120 -3 -19 -7 -69 -10 -110 -4 -41 -8 -91 -10 -110
-2 -19 -6 -73 -10 -120 -3 -47 -8 -101 -10 -120 -2 -19 -7 -64 -10 -100 -16
-186 -12 -174 -61 -209 -50 -35 -118 -133 -136 -195 -72 -255 105 -508 365
-521 147 -7 303 77 368 200 19 36 32 47 59 55 19 5 177 45 350 89 576 146 902
229 1225 311 176 45 374 95 439 112 l119 29 23 -25 c107 -115 272 -168 439
-141 64 11 176 68 231 118 135 122 190 316 139 494 l-17 62 433 578 c379 503
438 578 463 581 83 9 195 99 237 188 32 68 33 198 2 266 -30 66 -96 133 -162
165 -48 24 -69 28 -145 29 l-88 1 -87 74 c-47 40 -99 86 -116 100 -44 39 -349
304 -430 374 -39 33 -75 64 -81 70 -12 11 -43 38 -332 289 -112 97 -209 182
-217 189 -7 6 -42 37 -78 67 -61 51 -66 59 -81 119 -33 132 -114 223 -245 275
-58 23 -154 27 -219 10z m-288 -433 c22 -163 178 -307 348 -319 40 -3 68 -9
69 -16 0 -6 2 -18 3 -26 2 -8 6 -44 10 -80 8 -63 11 -95 21 -210 3 -30 7 -73
10 -95 2 -22 9 -94 15 -160 12 -127 19 -192 26 -237 2 -16 0 -28 -6 -28 -6 0
-30 -9 -52 -20 -23 -11 -45 -20 -48 -20 -3 0 -206 155 -451 345 -244 190 -475
369 -512 398 -38 28 -74 57 -80 62 -7 6 -133 104 -282 219 -148 115 -277 215
-285 222 -12 12 82 14 597 14 l610 0 7 -49z m797 -98 c9 -10 34 -32 55 -50 21
-18 53 -44 69 -58 113 -99 160 -141 236 -206 257 -221 445 -384 449 -389 3 -3
55 -48 115 -100 61 -52 112 -97 115 -100 3 -3 36 -32 75 -65 38 -33 88 -76
109 -96 l40 -37 -41 -46 c-22 -25 -49 -70 -59 -98 l-19 -53 -539 0 -538 0 -16
40 c-8 22 -31 59 -50 83 -35 44 -123 102 -154 102 -10 0 -18 3 -19 8 0 4 -2
15 -4 25 -2 9 -6 50 -10 90 -3 39 -8 88 -10 107 -2 19 -7 67 -11 105 -4 39 -8
81 -9 95 -1 14 -5 59 -9 100 -4 41 -9 91 -11 110 -5 33 -8 65 -20 187 -5 51
-4 52 33 74 53 32 118 102 147 160 27 53 39 55 76 12z m-1646 -303 c332 -257
474 -368 505 -394 18 -14 209 -161 249 -191 14 -11 78 -60 141 -110 63 -50
149 -116 191 -148 l76 -58 -21 -42 c-16 -31 -21 -61 -21 -114 0 -40 -1 -73 -2
-73 -4 0 -316 -70 -577 -129 l-270 -61 -47 48 c-65 66 -126 90 -220 88 l-74
-2 -44 100 c-87 198 -132 301 -146 331 -131 293 -305 694 -305 703 0 7 4 12 9
12 12 0 100 92 124 129 23 38 56 131 59 170 2 26 4 29 18 17 8 -7 168 -131
355 -276z m-795 -115 c25 1 62 5 83 9 23 4 37 3 37 -3 0 -6 20 -54 45 -107 25
-53 45 -97 45 -99 0 -2 14 -34 31 -72 49 -109 55 -122 112 -253 30 -69 68
-154 84 -190 17 -36 65 -144 107 -242 l77 -176 -34 -45 c-44 -57 -61 -121 -55
-200 6 -69 23 -109 69 -162 l31 -35 -30 -52 c-49 -88 -84 -151 -109 -197 -13
-24 -36 -65 -50 -90 -14 -25 -41 -75 -61 -111 -19 -36 -43 -78 -52 -95 -19
-33 -57 -101 -103 -185 -16 -30 -103 -189 -194 -352 l-164 -297 -27 11 c-15 5
-65 12 -112 14 -47 1 -84 7 -83 11 0 4 4 44 7 88 4 44 8 96 11 115 2 19 7 71
10 115 6 85 13 162 20 235 2 25 7 83 11 130 4 47 8 99 9 115 2 17 6 71 10 120
3 50 8 101 10 115 2 14 7 63 10 110 3 47 8 96 10 110 2 14 6 66 10 115 4 50 8
108 10 130 3 22 7 69 10 105 3 36 7 83 10 105 2 22 7 81 10 130 4 50 8 101 10
115 2 14 7 59 10 100 3 41 8 93 10 115 2 22 7 78 10 125 4 47 8 101 10 120 2
19 6 73 10 120 3 47 8 92 10 100 2 8 7 62 10 119 4 57 9 111 10 120 2 9 4 26
4 38 1 19 5 21 29 14 15 -4 47 -6 72 -6z m3604 -1060 c20 -65 100 -154 160
-179 26 -11 35 -20 30 -28 -5 -7 -181 -245 -393 -528 -212 -283 -386 -517
-388 -519 -1 -2 -25 17 -53 42 -58 52 -156 104 -212 114 -21 3 -42 11 -45 17
-4 6 -31 78 -59 161 -29 82 -78 222 -109 310 -31 88 -67 192 -80 230 -13 39
-37 107 -53 152 l-29 81 48 48 c45 44 54 58 78 127 l11 27 538 0 538 0 18 -55z
m-1609 -93 c40 -47 116 -82 194 -89 l69 -6 15 -41 c41 -111 97 -275 97 -285 0
-6 5 -19 10 -29 6 -9 48 -129 95 -266 46 -136 86 -251 89 -254 14 -13 2 -22
-51 -37 -32 -9 -82 -30 -112 -46 -30 -16 -58 -29 -62 -29 -6 0 -607 362 -689
415 -19 13 -156 96 -303 185 l-269 163 7 31 c4 17 8 48 10 68 4 55 3 54 105
74 14 3 222 51 570 133 91 22 173 40 183 40 10 1 29 -12 42 -27z m-532 -693
c254 -155 489 -298 522 -319 33 -20 106 -65 163 -99 56 -35 102 -64 102 -67 0
-2 -14 -25 -30 -51 -64 -101 -84 -248 -50 -369 10 -38 18 -69 17 -70 -1 0 -83
-21 -182 -47 -99 -25 -409 -105 -690 -177 -280 -72 -568 -147 -640 -165 -71
-18 -137 -36 -145 -39 -8 -3 -26 -8 -40 -10 -14 -3 -97 -24 -185 -46 -88 -23
-164 -42 -169 -43 -4 -1 -10 21 -12 48 -8 93 -43 172 -107 242 l-41 45 30 56
c44 83 95 175 204 372 54 96 112 202 130 235 18 33 36 65 40 70 4 6 30 53 58
105 28 52 107 196 175 319 l124 224 66 -2 c54 -2 78 3 127 25 33 15 60 31 60
35 0 5 2 9 5 9 3 0 213 -126 468 -281z"/>
<path d="M770 3212 c-27 -22 -39 -117 -18 -145 33 -45 107 -17 109 41 0 15 2
38 3 51 3 27 -33 71 -57 71 -8 0 -25 -8 -37 -18z"/>
<path d="M763 2919 c-31 -11 -40 -35 -48 -119 -3 -41 -8 -86 -10 -100 -2 -14
-7 -61 -10 -104 -4 -44 -9 -89 -11 -100 -2 -11 -6 -50 -9 -86 -3 -36 -7 -83
-10 -105 -26 -226 -27 -246 -10 -272 19 -28 65 -31 88 -5 8 9 18 44 22 77 3
33 8 76 10 95 5 46 16 153 20 199 5 59 17 174 20 204 17 138 26 261 21 280 -7
29 -43 47 -73 36z"/>
</g>
</svg>
